<svg width="118" height="24" viewBox="0 0 118 24" fill="none" xmlns="http://www.w3.org/2000/svg">
<path fill-rule="evenodd" clip-rule="evenodd" d="M12.4176 0.789746C12.1422 0.733089 11.858 0.733089 11.5826 0.789746C11.2641 0.855238 10.9795 1.01465 10.7532 1.14139L10.6916 1.17584L3.02276 5.43629C3.00156 5.44807 2.97971 5.46011 2.95733 5.47244C2.7178 5.60437 2.41663 5.77025 2.18535 6.02123C1.98539 6.23821 1.83406 6.49539 1.74149 6.77556C1.63442 7.09962 1.63568 7.44346 1.63667 7.71691C1.63677 7.74247 1.63686 7.76741 1.63686 7.79166V16.2036C1.63686 16.2279 1.63677 16.2528 1.63667 16.2784C1.63568 16.5518 1.63442 16.8957 1.74149 17.2197C1.83406 17.4999 1.98539 17.7571 2.18535 17.9741C2.41663 18.225 2.7178 18.3909 2.95733 18.5229C2.97972 18.5352 3.00156 18.5472 3.02276 18.559L10.6916 22.8194L10.7533 22.8539C10.9795 22.9806 11.2641 23.1401 11.5826 23.2055C11.858 23.2622 12.1422 23.2622 12.4176 23.2055C12.7361 23.14 13.0207 22.9806 13.247 22.8539L13.3086 22.8194L20.9775 18.559C20.9868 18.5538 20.9963 18.5485 21.0059 18.5432C21.0181 18.5365 21.0304 18.5297 21.0429 18.5229C21.2824 18.3909 21.5836 18.225 21.8149 17.9741C22.0148 17.7571 22.1662 17.4999 22.2587 17.2197C22.3658 16.8957 22.3645 16.5518 22.3635 16.2784C22.3635 16.2528 22.3634 16.2279 22.3634 16.2036V7.79166C22.3634 7.76741 22.3635 7.74247 22.3635 7.71692C22.3645 7.44346 22.3658 7.09962 22.2587 6.77556C22.1662 6.49539 22.0148 6.23821 21.8149 6.02122C21.5836 5.77025 21.2824 5.60436 21.0429 5.47243L21.042 5.47197C21.02 5.4598 20.9984 5.44792 20.9775 5.43629L13.3087 1.17584L13.247 1.14139C13.0207 1.01465 12.7361 0.855237 12.4176 0.789746ZM11.6981 2.98767C11.8552 2.90042 11.9354 2.85633 11.9952 2.82749L12.0001 2.82512L12.0051 2.82749C12.0649 2.85633 12.145 2.90042 12.3021 2.98767L19.1931 6.81599L12.0001 10.8121L4.80712 6.81601L11.6981 2.98767ZM3.70951 8.57726L10.9638 12.6074L10.9638 20.5996L4.02933 16.7472C3.86357 16.6551 3.77894 16.6076 3.71956 16.5697L3.71455 16.5665L3.71417 16.5606C3.70994 16.4903 3.70951 16.3933 3.70951 16.2036V8.57726Z" fill="#101828"/>
<path d="M37.124 17.14C36.3587 17.14 35.6633 16.9953 35.038 16.706C34.4127 16.4073 33.918 15.9593 33.554 15.362C33.19 14.7647 33.008 14.0133 33.008 13.108V6.64H34.912V13.108C34.912 13.7427 35.0893 14.2747 35.444 14.704C35.808 15.1333 36.368 15.348 37.124 15.348C37.8893 15.348 38.454 15.1333 38.818 14.704C39.182 14.2747 39.364 13.7427 39.364 13.108V6.64H41.254V13.108C41.254 14.0133 41.072 14.7647 40.708 15.362C40.344 15.9593 39.8493 16.4073 39.224 16.706C38.608 16.9953 37.908 17.14 37.124 17.14ZM42.6456 17V9.58H44.5076V10.644H44.5916C44.6662 10.5133 44.7829 10.3547 44.9416 10.168C45.1002 9.972 45.3196 9.804 45.5996 9.664C45.8796 9.51467 46.2342 9.44 46.6636 9.44C47.2329 9.44 47.6996 9.57067 48.0636 9.832C48.4369 10.084 48.7122 10.42 48.8896 10.84C49.0762 11.26 49.1696 11.7127 49.1696 12.198V17H47.3076V12.45C47.3076 12.0487 47.1956 11.7033 46.9716 11.414C46.7476 11.1247 46.4116 10.98 45.9636 10.98C45.6182 10.98 45.3382 11.0687 45.1236 11.246C44.9089 11.414 44.7502 11.6333 44.6476 11.904C44.5542 12.1747 44.5076 12.4593 44.5076 12.758V17H42.6456ZM53.4094 17.14C52.8027 17.14 52.3034 17.0607 51.9114 16.902C51.5194 16.734 51.2067 16.5287 50.9734 16.286C50.7494 16.034 50.5814 15.7867 50.4694 15.544C50.3574 15.3013 50.2827 15.1007 50.2454 14.942C50.2174 14.774 50.2034 14.69 50.2034 14.69H51.9674C51.9674 14.69 51.9814 14.7413 52.0094 14.844C52.0467 14.9467 52.1121 15.068 52.2054 15.208C52.3081 15.3387 52.4621 15.4553 52.6674 15.558C52.8727 15.6607 53.1434 15.712 53.4794 15.712C53.8807 15.712 54.1701 15.628 54.3474 15.46C54.5247 15.2827 54.6134 15.0867 54.6134 14.872C54.6134 14.6667 54.5341 14.5033 54.3754 14.382C54.2261 14.2513 54.0021 14.1533 53.7034 14.088L52.6814 13.878C52.2707 13.794 51.8881 13.6727 51.5334 13.514C51.1787 13.346 50.8894 13.122 50.6654 12.842C50.4414 12.5527 50.3294 12.184 50.3294 11.736C50.3294 11.0733 50.5814 10.5273 51.0854 10.098C51.5894 9.65933 52.2754 9.44 53.1434 9.44C53.6941 9.44 54.1467 9.51467 54.5014 9.664C54.8654 9.81333 55.1547 10 55.3694 10.224C55.5934 10.448 55.7567 10.672 55.8594 10.896C55.9714 11.12 56.0414 11.3113 56.0694 11.47C56.1067 11.6193 56.1254 11.694 56.1254 11.694H54.4174C54.4174 11.694 54.4034 11.652 54.3754 11.568C54.3474 11.4747 54.2867 11.372 54.1934 11.26C54.1094 11.148 53.9787 11.05 53.8014 10.966C53.6334 10.8727 53.4047 10.826 53.1154 10.826C52.7234 10.826 52.4434 10.91 52.2754 11.078C52.1167 11.246 52.0374 11.4233 52.0374 11.61C52.0374 11.8153 52.1261 11.974 52.3034 12.086C52.4807 12.198 52.7094 12.282 52.9894 12.338L53.9554 12.548C54.6461 12.688 55.2107 12.9307 55.6494 13.276C56.0974 13.6213 56.3214 14.1207 56.3214 14.774C56.3214 15.2127 56.2047 15.614 55.9714 15.978C55.7474 16.3327 55.4161 16.6173 54.9774 16.832C54.5481 17.0373 54.0254 17.14 53.4094 17.14ZM57.4462 19.744V9.58H59.3082V10.616H59.4062C59.4715 10.504 59.5882 10.3547 59.7562 10.168C59.9335 9.98133 60.1762 9.81333 60.4842 9.664C60.7922 9.51467 61.1842 9.44 61.6602 9.44C62.2202 9.44 62.7055 9.552 63.1162 9.776C63.5269 9.99067 63.8675 10.2847 64.1382 10.658C64.4089 11.022 64.6095 11.4327 64.7402 11.89C64.8802 12.3473 64.9502 12.814 64.9502 13.29C64.9502 13.766 64.8802 14.2327 64.7402 14.69C64.6095 15.1473 64.4089 15.5627 64.1382 15.936C63.8675 16.3 63.5269 16.594 63.1162 16.818C62.7055 17.0327 62.2202 17.14 61.6602 17.14C61.1842 17.14 60.7922 17.0653 60.4842 16.916C60.1762 16.7573 59.9335 16.5847 59.7562 16.398C59.5882 16.2113 59.4715 16.0667 59.4062 15.964H59.3082V19.744H57.4462ZM59.2802 13.29C59.2802 13.6727 59.3502 14.0413 59.4902 14.396C59.6302 14.7507 59.8402 15.0447 60.1202 15.278C60.4002 15.502 60.7502 15.614 61.1702 15.614C61.5995 15.614 61.9542 15.502 62.2342 15.278C62.5142 15.0447 62.7242 14.7507 62.8642 14.396C63.0042 14.0413 63.0742 13.6727 63.0742 13.29C63.0742 12.9073 63.0042 12.5387 62.8642 12.184C62.7242 11.8293 62.5142 11.54 62.2342 11.316C61.9542 11.0827 61.5995 10.966 61.1702 10.966C60.7502 10.966 60.4002 11.0827 60.1202 11.316C59.8402 11.54 59.6302 11.8293 59.4902 12.184C59.3502 12.5387 59.2802 12.9073 59.2802 13.29ZM66.171 17L66.185 6.36H68.033V17H66.171ZM72.5472 9.44C73.0232 9.44 73.4152 9.51933 73.7232 9.678C74.0312 9.82733 74.2738 9.99533 74.4512 10.182C74.6285 10.3593 74.7498 10.504 74.8152 10.616H74.8992V9.58H76.7612V17H74.8992V15.964H74.8152C74.7498 16.076 74.6285 16.2253 74.4512 16.412C74.2738 16.5987 74.0312 16.7667 73.7232 16.916C73.4152 17.0653 73.0232 17.14 72.5472 17.14C71.9965 17.14 71.5158 17.0327 71.1052 16.818C70.6945 16.594 70.3492 16.3 70.0692 15.936C69.7985 15.5627 69.5932 15.1473 69.4532 14.69C69.3225 14.2327 69.2572 13.766 69.2572 13.29C69.2572 12.814 69.3225 12.3473 69.4532 11.89C69.5932 11.4327 69.7985 11.022 70.0692 10.658C70.3492 10.2847 70.6945 9.99067 71.1052 9.776C71.5158 9.552 71.9965 9.44 72.5472 9.44ZM73.0372 10.966C72.6172 10.966 72.2625 11.0827 71.9732 11.316C71.6932 11.54 71.4832 11.8293 71.3432 12.184C71.2032 12.5387 71.1332 12.9073 71.1332 13.29C71.1332 13.6727 71.2032 14.0413 71.3432 14.396C71.4832 14.7507 71.6932 15.0447 71.9732 15.278C72.2625 15.502 72.6172 15.614 73.0372 15.614C73.4572 15.614 73.8072 15.502 74.0872 15.278C74.3672 15.0447 74.5772 14.7507 74.7172 14.396C74.8572 14.0413 74.9272 13.6727 74.9272 13.29C74.9272 12.9073 74.8572 12.5387 74.7172 12.184C74.5772 11.8293 74.3672 11.54 74.0872 11.316C73.8072 11.0827 73.4572 10.966 73.0372 10.966ZM81.008 17.14C80.4013 17.14 79.902 17.0607 79.51 16.902C79.118 16.734 78.8053 16.5287 78.572 16.286C78.348 16.034 78.18 15.7867 78.068 15.544C77.956 15.3013 77.8813 15.1007 77.844 14.942C77.816 14.774 77.802 14.69 77.802 14.69H79.566C79.566 14.69 79.58 14.7413 79.608 14.844C79.6453 14.9467 79.7107 15.068 79.804 15.208C79.9067 15.3387 80.0607 15.4553 80.266 15.558C80.4713 15.6607 80.742 15.712 81.078 15.712C81.4793 15.712 81.7687 15.628 81.946 15.46C82.1233 15.2827 82.212 15.0867 82.212 14.872C82.212 14.6667 82.1327 14.5033 81.974 14.382C81.8247 14.2513 81.6007 14.1533 81.302 14.088L80.28 13.878C79.8693 13.794 79.4867 13.6727 79.132 13.514C78.7773 13.346 78.488 13.122 78.264 12.842C78.04 12.5527 77.928 12.184 77.928 11.736C77.928 11.0733 78.18 10.5273 78.684 10.098C79.188 9.65933 79.874 9.44 80.742 9.44C81.2927 9.44 81.7453 9.51467 82.1 9.664C82.464 9.81333 82.7533 10 82.968 10.224C83.192 10.448 83.3553 10.672 83.458 10.896C83.57 11.12 83.64 11.3113 83.668 11.47C83.7053 11.6193 83.724 11.694 83.724 11.694H82.016C82.016 11.694 82.002 11.652 81.974 11.568C81.946 11.4747 81.8853 11.372 81.792 11.26C81.708 11.148 81.5773 11.05 81.4 10.966C81.232 10.8727 81.0033 10.826 80.714 10.826C80.322 10.826 80.042 10.91 79.874 11.078C79.7153 11.246 79.636 11.4233 79.636 11.61C79.636 11.8153 79.7247 11.974 79.902 12.086C80.0793 12.198 80.308 12.282 80.588 12.338L81.554 12.548C82.2447 12.688 82.8093 12.9307 83.248 13.276C83.696 13.6213 83.92 14.1207 83.92 14.774C83.92 15.2127 83.8033 15.614 83.57 15.978C83.346 16.3327 83.0147 16.6173 82.576 16.832C82.1467 17.0373 81.624 17.14 81.008 17.14ZM84.9901 17V6.36H86.8521V10.644H86.9361C87.0108 10.5133 87.1274 10.3547 87.2861 10.168C87.4448 9.972 87.6641 9.804 87.9441 9.664C88.2241 9.51467 88.5788 9.44 89.0081 9.44C89.5774 9.44 90.0441 9.57067 90.4081 9.832C90.7814 10.084 91.0568 10.42 91.2341 10.84C91.4208 11.26 91.5141 11.7127 91.5141 12.198V17H89.6521V12.45C89.6521 12.0487 89.5401 11.7033 89.3161 11.414C89.0921 11.1247 88.7561 10.98 88.3081 10.98C87.9628 10.98 87.6828 11.0687 87.4681 11.246C87.2534 11.414 87.0948 11.6333 86.9921 11.904C86.8988 12.1747 86.8521 12.4593 86.8521 12.758V17H84.9901ZM92.8946 17V6.64H97.4166C98.0793 6.64 98.644 6.75667 99.1106 6.99C99.5773 7.22333 99.932 7.536 100.175 7.928C100.427 8.32 100.553 8.74933 100.553 9.216C100.553 9.692 100.464 10.084 100.287 10.392C100.119 10.7 99.9133 10.9427 99.6706 11.12C99.4373 11.288 99.2226 11.4047 99.0266 11.47V11.568C99.2693 11.6333 99.54 11.7593 99.8386 11.946C100.147 12.1327 100.413 12.3987 100.637 12.744C100.861 13.08 100.973 13.5187 100.973 14.06C100.973 14.5453 100.856 15.0167 100.623 15.474C100.389 15.922 100.021 16.2907 99.5166 16.58C99.0126 16.86 98.3453 17 97.5146 17H92.8946ZM97.1646 8.25H94.7986V10.952H97.1646C97.706 10.952 98.098 10.8167 98.3406 10.546C98.5833 10.2753 98.7046 9.958 98.7046 9.594C98.7046 9.23933 98.5833 8.92667 98.3406 8.656C98.098 8.38533 97.706 8.25 97.1646 8.25ZM97.3046 12.408H94.7986V15.39H97.3046C97.9206 15.39 98.3686 15.2407 98.6486 14.942C98.9286 14.6433 99.0686 14.2933 99.0686 13.892C99.0686 13.5 98.9286 13.1547 98.6486 12.856C98.3686 12.5573 97.9206 12.408 97.3046 12.408ZM105.736 17.14C104.924 17.14 104.233 16.958 103.664 16.594C103.095 16.23 102.661 15.7587 102.362 15.18C102.073 14.592 101.928 13.962 101.928 13.29C101.928 12.618 102.073 11.9927 102.362 11.414C102.661 10.826 103.095 10.35 103.664 9.986C104.233 9.622 104.924 9.44 105.736 9.44C106.557 9.44 107.248 9.622 107.808 9.986C108.377 10.35 108.807 10.826 109.096 11.414C109.395 11.9927 109.544 12.618 109.544 13.29C109.544 13.962 109.395 14.592 109.096 15.18C108.807 15.7587 108.377 16.23 107.808 16.594C107.248 16.958 106.557 17.14 105.736 17.14ZM105.736 15.586C106.156 15.586 106.506 15.4787 106.786 15.264C107.075 15.0493 107.295 14.7693 107.444 14.424C107.593 14.0693 107.668 13.6913 107.668 13.29C107.668 12.8793 107.593 12.5013 107.444 12.156C107.295 11.8107 107.075 11.5307 106.786 11.316C106.506 11.1013 106.156 10.994 105.736 10.994C105.325 10.994 104.975 11.1013 104.686 11.316C104.397 11.5307 104.177 11.8107 104.028 12.156C103.879 12.5013 103.804 12.8793 103.804 13.29C103.804 13.6913 103.879 14.0693 104.028 14.424C104.177 14.7693 104.397 15.0493 104.686 15.264C104.975 15.4787 105.325 15.586 105.736 15.586ZM109.965 17L112.275 13.304L109.951 9.58H111.911L113.521 12.184L115.159 9.58H117.105L114.725 13.304L117.105 17H115.145L113.521 14.396L111.911 17H109.965Z" fill="#101828"/>
</svg>
